<?xml version="1.0" standalone="no"?>
<!DOCTYPE svg PUBLIC "-//W3C//DTD SVG 20010904//EN"
 "http://www.w3.org/TR/2001/REC-SVG-20010904/DTD/svg10.dtd">
<svg version="1.0" xmlns="http://www.w3.org/2000/svg"
 width="300.000000pt" height="300.000000pt" viewBox="0 0 300.000000 300.000000"
 preserveAspectRatio="xMidYMid meet">
<metadata>
Created by potrace 1.14, written by Peter Selinger 2001-2017
</metadata>
<g transform="translate(0.000000,300.000000) scale(0.100000,-0.100000)"
fill="#000000" stroke="none">
<path d="M1300 2879 c-29 -13 -40 -24 -37 -33 4 -10 1 -13 -8 -10 -22 9 -71
-90 -95 -192 -12 -51 -19 -98 -14 -105 4 -8 3 -10 -4 -5 -8 4 -12 -1 -13 -13
-1 -12 -2 -24 -3 -28 -35 -147 -46 -204 -41 -213 3 -5 2 -10 -3 -10 -6 0 -13
-15 -16 -32 -8 -44 -12 -59 -36 -158 -19 -76 -32 -132 -44 -195 -3 -11 -7 -29
-9 -40 -7 -27 -35 -144 -36 -150 -1 -3 -1 -6 -2 -7 -2 -6 -8 -35 -13 -58 -3
-14 -9 -38 -12 -55 -4 -16 -8 -37 -9 -45 0 -9 -4 -20 -7 -25 -3 -6 -9 -26 -12
-45 -4 -30 -29 -139 -42 -190 -9 -37 -36 -156 -38 -170 -2 -8 -6 -26 -10 -39
-6 -16 -4 -26 5 -32 11 -7 11 -9 -3 -9 -15 0 -27 -36 -33 -100 0 -9 -4 -20 -7
-25 -6 -9 -19 -68 -23 -105 -1 -8 -5 -22 -8 -30 -14 -38 -28 -122 -23 -136 3
-8 2 -13 -3 -10 -9 6 -17 -16 -27 -79 -3 -21 -10 -49 -15 -62 -5 -13 -7 -23
-5 -23 2 0 -2 -24 -10 -52 -45 -171 34 -318 154 -286 42 11 106 75 131 130 17
39 38 115 57 208 9 41 14 61 18 75 1 6 6 28 11 50 16 80 20 98 35 154 6 24 9
50 6 58 -3 8 -2 12 2 9 14 -9 33 105 20 121 -8 10 -8 12 4 8 19 -7 41 93 25
113 -8 10 -7 12 3 10 11 -3 27 44 44 135 2 12 12 55 21 96 9 40 18 78 20 85 1
6 4 18 7 26 5 13 12 44 32 145 2 11 17 70 32 130 15 61 28 124 28 142 1 17 4
29 9 26 6 -3 11 41 5 50 -1 1 3 11 9 22 6 11 14 36 17 56 3 20 10 48 15 61 7
18 6 29 -2 38 -7 8 -8 10 -1 7 9 -5 38 98 70 248 1 6 19 82 39 170 43 189 47
261 16 325 -38 79 -96 102 -171 69z m21 -286 c13 -16 12 -17 -3 -4 -17 13 -22
21 -14 21 2 0 10 -8 17 -17z m-77 -879 c3 -8 2 -12 -4 -9 -6 3 -10 10 -10 16
0 14 7 11 14 -7z m-554 -1338 c0 -2 -8 -10 -17 -17 -16 -13 -17 -12 -4 4 13
16 21 21 21 13z"/>
<path d="M1748 2886 c-37 -16 -76 -54 -103 -101 -24 -41 -40 -98 -95 -335 -17
-74 -39 -171 -49 -215 -11 -44 -28 -120 -40 -170 -25 -110 -252 -1094 -256
-1115 -2 -8 -15 -64 -29 -125 -40 -167 -87 -373 -100 -436 -28 -129 4 -237 79
-270 66 -29 131 -2 186 77 34 50 83 228 159 584 10 48 64 281 95 415 14 61 28
121 31 135 3 14 7 33 10 42 3 9 6 25 8 35 2 10 23 99 46 198 23 99 46 198 51
220 5 22 10 49 13 60 17 76 30 133 53 225 14 58 26 112 28 120 2 8 10 47 19
85 8 39 29 129 45 200 17 72 31 157 31 190 0 129 -92 221 -182 181z"/>
<path d="M2195 2884 c-96 -33 -129 -101 -199 -409 -30 -132 -66 -288 -80 -348
-14 -59 -28 -118 -30 -130 -2 -12 -9 -42 -16 -67 -7 -25 -14 -53 -16 -64 -2
-10 -18 -80 -35 -155 -17 -75 -35 -152 -39 -171 -6 -29 -63 -279 -75 -330 -16
-68 -58 -249 -61 -264 -2 -10 -12 -55 -23 -100 -11 -44 -22 -92 -25 -106 -3
-14 -23 -104 -46 -200 -50 -206 -55 -292 -21 -358 56 -111 178 -102 258 19 21
32 55 140 77 244 16 77 53 237 161 700 47 204 88 384 91 400 3 17 11 55 19 85
11 44 97 411 110 470 2 8 29 125 60 260 62 265 73 352 56 417 -24 88 -93 132
-166 107z"/>
</g>
</svg>
